<?xml version="1.0" encoding="UTF-8"?>
<svg id="Layer_1" data-name="Layer 1" xmlns="http://www.w3.org/2000/svg" viewBox="0 0 150 50">
  <defs>
    <style>
      .cls-1 {
        fill: #036;
      }

      .cls-1, .cls-2 {
        stroke-width: 0px;
      }

      .cls-2 {
        fill: none;
      }
    </style>
  </defs>
  <rect class="cls-2" width="150" height="50"/>
  <g>
    <g id="SvgjsG1214">
      <path class="cls-1" d="m75,2.7c-12.3,0-22.3,10-22.3,22.3s10,22.3,22.3,22.3,22.3-10,22.3-22.3S87.3,2.7,75,2.7Zm0,43.5c-11.7,0-21.2-9.5-21.2-21.2S63.3,3.8,75,3.8s21.2,9.5,21.2,21.2-9.5,21.2-21.2,21.2Z"/>
    </g>
    <g id="SvgjsG1215">
      <path class="cls-1" d="m80.3,20.9h-.7c.1-.2.2-.4.2-.7,0-.5-.4-1-.9-1.1v-1.4c0-.6-.5-1-1-1h-11.2c-.6,0-1,.5-1,1v1.4c-.5.1-.9.6-.9,1.1,0,.2,0,.5.2.7h-.7c-.1,0-.2.1-.2.2h0v2.3c0,.1.1.2.2.2h1.4v1.5c0,.1.1.2.2.2s.2-.1.2-.2v-1.5h12.3v1.5c0,.1.1.2.2.2s.2-.1.2-.2v-1.5h1.4c.1,0,.2-.1.2-.2h0v-2.3c0-.1-.1-.2-.2-.2h0Zm-1-.7c0,.4-.3.7-.7.7s-.7-.3-.7-.7.3-.7.7-.7h0c.4,0,.7.3.7.7Zm-12.7-3.1h11.2c.3,0,.5.2.5.5v1.4c-.5.1-.9.6-.9,1.1,0,.2,0,.5.2.7h-10.9c.1-.2.2-.4.2-.7,0-.5-.4-1-.9-1.1v-1.4c0-.3.2-.5.5-.5Zm-1.4,3.1c0-.4.3-.7.7-.7s.7.3.7.7-.3.7-.7.7h0c-.4,0-.7-.3-.7-.7Zm14.9,3h-15.6v-1.8h15.6v1.8Z"/>
      <path class="cls-1" d="m69.4,19.7c.4,0,.7-.3.7-.7s-.3-.7-.7-.7-.7.3-.7.7c0,.4.3.7.7.7Zm0-1c.1,0,.2.1.2.2s-.1.2-.2.2-.2-.1-.2-.2c0-.1.1-.2.2-.2Z"/>
      <path class="cls-1" d="m75.2,19.7c.4,0,.7-.3.7-.7s-.3-.7-.7-.7-.7.3-.7.7c0,.4.3.7.7.7Zm0-1c.1,0,.2.1.2.2s-.1.2-.2.2-.2-.1-.2-.2c0-.1.1-.2.2-.2Z"/>
      <path class="cls-1" d="m72.3,19.7c.4,0,.7-.3.7-.7s-.3-.7-.7-.7-.7.3-.7.7c0,.4.3.7.7.7Zm0-1c.1,0,.2.1.2.2s-.1.2-.2.2-.2-.1-.2-.2c0-.1.1-.2.2-.2Z"/>
      <path class="cls-1" d="m86,14l-1.3-3.8c0,0-.1-.2-.2-.2h-2.9c-.1,0-.2,0-.2.2l-1.3,3.8c0,.1,0,.3.1.3,0,0,0,0,0,0h.8v1c0,.1.1.2.2.2s.2-.1.2-.2v-1h1.2v10.6h-1c-.1,0-.2.1-.2.2s.1.2.2.2h2.4c.1,0,.2-.1.2-.2s-.1-.2-.2-.2h-1v-10.6h2.5c.1,0,.2-.1.2-.2,0,0,0,0,0,0Zm-5.4-.2l1.1-3.3h2.6l1.1,3.3h-4.8Z"/>
    </g>
    <g id="SvgjsG1216">
      <path class="cls-1" d="m65.6,34.7v-3h-3.7v3h-.7v-6.5h.7v2.9h3.7v-2.9h.7v6.5h-.7Zm8.7-3.2c0,.6-.1,1.2-.4,1.7-.3.5-.7.9-1.2,1.2-.5.3-1.1.4-1.7.4s-.9,0-1.3-.3c-.4-.2-.7-.4-1-.7-.3-.3-.5-.6-.7-1-.2-.4-.2-.8-.2-1.3s.1-1.2.4-1.7c.3-.5.7-.9,1.2-1.2.5-.3,1.1-.4,1.7-.4s.9,0,1.3.2c.4.2.7.4,1,.7.3.3.5.6.7,1,.2.4.2.8.2,1.3Zm-.7,0c0-.7-.3-1.4-.7-1.9s-1.1-.8-1.8-.8-.9.1-1.3.4c-.4.2-.7.6-.9,1-.2.4-.3.8-.3,1.3,0,.7.3,1.4.7,1.9.4.5,1.1.8,1.8.8s.9-.1,1.3-.4c.4-.2.7-.6.9-1s.3-.8.3-1.3Zm8-3.2h1v6.5h-.7v-5.5h0l-2.4,5.5h-.6l-2.4-5.5h0v5.5h-.7v-6.5h1l2.4,5.5,2.4-5.5Zm3,6.5v-6.5h4v.6h-3.4v2.2h3.1v.6h-3.1v2.3h3.4v.6h-4.1Z"/>
    </g>
    <g id="SvgjsG1217">
      <path class="cls-1" d="m63.8,39.8v-1.7h-2.1v1.7h-.4v-3.7h.4v1.6h2.1v-1.6h.4v3.7h-.4Zm4.2,0l-.4-.9h-2l-.4.9h-.4l1.6-3.7h.4l1.6,3.7h-.4Zm-.5-1.3l-.9-2-.8,2h1.7Zm4.3,1.3h-.5l-1.1-1.5h-.7v1.5h-.4v-3.7h1.3c.4,0,.8.1,1,.3s.3.5.3.7c0,.6-.5,1-1,1l1.1,1.5Zm-2.3-3.3v1.5h.8c.3,0,.6,0,.7-.2.1-.1.2-.3.2-.5,0-.4-.2-.7-.9-.7,0,0-.9,0-.9,0Zm6.4-.4h.6v3.7h-.4v-3.1h0l-1.4,3.1h-.3l-1.3-3.1h0v3.1h-.4v-3.7h.5l1.4,3.1,1.4-3.1Zm5.1,1.8c0,.3,0,.7-.2.9-.2.3-.4.5-.7.7-.3.2-.6.3-.9.3s-.5,0-.7-.1c-.2,0-.4-.2-.6-.4-.2-.2-.3-.4-.4-.6,0-.2-.1-.5-.1-.7s0-.7.2-.9c.2-.3.4-.5.7-.7.3-.2.6-.2.9-.2s.5,0,.7.1c.2.1.4.2.6.4.2.2.3.4.4.6,0,.2.1.5.1.7Zm-.4,0c0-.4-.2-.8-.4-1.1s-.6-.5-1-.5-.5,0-.7.2c-.2.1-.4.3-.5.5-.1.2-.2.5-.2.8,0,.4.2.8.4,1.1.3.3.6.5,1,.5s.5,0,.7-.2c.2-.1.4-.3.5-.5s.2-.5.2-.7h0Zm3.9-1.8h.4v3.7h-.4l-2.2-3.1v3.1h-.4v-3.7h.4l2.2,3.1v-3.1Zm2.7,1.8l1.2-1.8h.4l-1.4,2.1v1.5h-.4v-1.5l-1.4-2.1h.5l1.2,1.8Z"/>
    </g>
  </g>
  <rect class="cls-2" width="150" height="50"/>
</svg>