<svg xmlns="http://www.w3.org/2000/svg" width="18.377" height="18.413" viewBox="0 0 18.377 18.413"><g transform="translate(0 4.63)"><path d="M14.57,142.783H4.807A4.312,4.312,0,0,1,.5,138.476v-5.169A4.312,4.312,0,0,1,4.807,129H14.57a4.312,4.312,0,0,1,4.307,4.307v5.169A4.312,4.312,0,0,1,14.57,142.783ZM4.807,130.436a2.875,2.875,0,0,0-2.871,2.871v5.169a2.875,2.875,0,0,0,2.871,2.871H14.57a2.875,2.875,0,0,0,2.871-2.871v-5.169a2.875,2.875,0,0,0-2.871-2.871Z" transform="translate(-0.5 -129)"/></g><g transform="translate(5.779)"><path d="M167.6,3.194a.718.718,0,0,1-.718-.718,1.042,1.042,0,0,0-1.041-1.041h-1.866a1.042,1.042,0,0,0-1.041,1.041.718.718,0,0,1-1.436,0A2.479,2.479,0,0,1,163.977,0h1.866a2.479,2.479,0,0,1,2.477,2.477A.718.718,0,0,1,167.6,3.194Z" transform="translate(-161.5)"/></g></svg>