<svg xmlns="http://www.w3.org/2000/svg" width="38.074" height="47.722" viewBox="0 0 38.074 47.722"><path d="M67.657.012A19.043,19.043,0,0,0,49.644,22.653h0s.029.205.127.6a19.081,19.081,0,0,0,1.282,3.777c1.908,4.52,6.321,12.084,16.223,20.313a1.654,1.654,0,0,0,2.113,0c9.9-8.219,14.315-15.782,16.233-20.322A18.273,18.273,0,0,0,86.9,23.241c.088-.382.127-.6.127-.6h0A19.048,19.048,0,0,0,67.657.012ZM68.332,28.5a9.246,9.246,0,1,1,9.246-9.246A9.245,9.245,0,0,1,68.332,28.5Z" transform="translate(-49.299 0)" fill="#fa8c16"></path></svg>